<?xml version="1.0" encoding="UTF-8" standalone="no"?>
<svg
   xmlns:dc="http://purl.org/dc/elements/1.1/"
   xmlns:cc="http://creativecommons.org/ns#"
   xmlns:rdf="http://www.w3.org/1999/02/22-rdf-syntax-ns#"
   xmlns:svg="http://www.w3.org/2000/svg"
   xmlns="http://www.w3.org/2000/svg"
   viewBox="0 0 513.70667 199.73334"
   height="199.73334"
   width="513.70667"
   xml:space="preserve"
   id="svg2"
   version="1.1"><metadata
     id="metadata8"><rdf:RDF><cc:Work
         rdf:about=""><dc:format>image/svg+xml</dc:format><dc:type
           rdf:resource="http://purl.org/dc/dcmitype/StillImage" /></cc:Work></rdf:RDF></metadata><defs
     id="defs6" /><g
     transform="matrix(1.3333333,0,0,-1.3333333,0,199.73333)"
     id="g10"><g
       transform="scale(0.1)"
       id="g12"><path
         id="path14"
         style="fill:#000000;fill-opacity:1;fill-rule:nonzero;stroke:none"
         d="M 351.23,17.8398 V 343.109 H 30 v 278.528 h 321.23 v 410.503 h 922.08 L 1146.38,728.059 H 703.613 V 621.637 H 1101.96 L 985.699,343.109 H 703.613 V 17.8398 H 351.23" /><path
         id="path16"
         style="fill:#000000;fill-opacity:1;fill-rule:nonzero;stroke:none"
         d="M 1288.32,1042.14 H 341.23 V 631.637 H 20 v -20 -258.528 -20 H 40 341.23 V 27.8398 7.83984 h 20 332.383 20 V 27.8398 333.109 h 265.426 13.324 l 5.133,12.301 107.914,258.524 11.56,27.703 h -30.02 -373.337 v 86.422 h 426.107 13.33 l 5.13,12.296 118.58,284.085 z m -30.02,-20 -118.58,-284.081 H 693.613 V 611.637 H 1086.95 L 979.039,353.109 H 693.613 V 27.8398 H 361.23 V 353.109 H 40 v 258.528 h 321.23 v 410.503 h 897.07" /><path
         id="path18"
         style="fill:#000000;fill-opacity:1;fill-rule:nonzero;stroke:none"
         d="M 331.23,37.8398 V 363.109 H 10 v 278.528 h 321.23 v 410.503 h 922.08 L 1126.38,748.059 H 683.613 V 641.637 H 1081.96 L 965.699,363.109 H 683.613 V 37.8398 H 331.23" /><path
         id="path20"
         style="fill:#ffffff;fill-opacity:1;fill-rule:nonzero;stroke:none"
         d="M 1268.32,1062.14 H 321.23 V 651.637 H 0 v -20 -258.528 -20 h 20 301.23 v -305.2692 -20 h 20 332.383 20 v 20 305.2692 h 265.426 13.324 l 5.133,12.301 107.914,258.524 11.56,27.703 h -30.02 -373.337 v 86.422 h 426.107 13.33 l 5.13,12.296 118.58,284.085 z m -30.02,-20 -118.58,-284.081 H 673.613 V 631.637 H 1066.95 L 959.039,373.109 H 673.613 V 47.8398 H 341.23 V 373.109 H 20 v 258.528 h 321.23 v 410.503 h 897.07" /><path
         id="path22"
         style="fill:#000000;fill-opacity:1;fill-rule:nonzero;stroke:none"
         d="m 3815.54,979.809 v 16.742 l -3.3,-5.016 h -11.82 l -3.1,4.75 v -16.476 h -27.48 v 45.201 h -8.38 v -45.201 h -27.47 v 45.201 h -16.83 v 27.13 h 76.08 l 13.23,-20.32 13.11,20.32 h 23.27 v -72.331 h -27.31" /><path
         id="path24"
         style="fill:#ffffff;fill-opacity:1;fill-rule:nonzero;stroke:none"
         d="m 3852.85,1062.14 h -38.71 l -5.91,-9.16 -1.8,-2.78 -1.85,2.85 -5.92,9.09 h -10.38 -20 -41.12 -20 v -20 -7.13 -20 h 16.83 v -25.201 -20 h 20 7.47 8.38 20 7.48 20 18.22 7.31 20 v 20 52.331 z m -84.57,-20 v -7.13 h -16.82 v -45.201 h -7.47 v 45.201 h -16.83 v 7.13 h 41.12 m 64.57,0 v -52.331 h -7.31 v 40.101 l -18.69,-28.37 h -1.02 l -18.51,28.37 v -40.101 h -7.48 v 52.331 h 7.98 l 18.69,-28.71 18.52,28.71 h 7.82" /><path
         id="path26"
         style="fill:#000000;fill-opacity:1;fill-rule:nonzero;stroke:none"
         d="M 2830.21,17.8398 V 730.902 H 2538.95 V 17.8398 H 2186.57 V 730.902 H 1968.61 L 1842.55,1032.14 H 3698.2 V 730.902 h -521.3 v -72.336 h 485.79 V 398.5 H 3176.9 v -87.941 h 528.4 V 17.8398 h -875.09" /><path
         id="path28"
         style="fill:#000000;fill-opacity:1;fill-rule:nonzero;stroke:none"
         d="M 3708.2,1042.14 H 1827.53 l 11.6,-27.72 117.69,-281.24 5.14,-12.278 h 13.31 201.3 V 27.8398 7.83984 h 20 332.38 20 V 27.8398 720.902 h 271.26 V 27.8398 7.83984 h 20 855.09 20 v 19.99996 272.7192 20 h -20 -508.4 V 388.5 h 465.79 20 v 20 240.066 20 h -20 -465.79 v 52.336 h 501.3 20 v 20 8.516 272.722 z m -20,-20 V 740.902 h -521.3 v -92.336 h 485.79 V 408.5 H 3166.9 V 300.559 h 528.4 V 27.8398 H 2840.21 V 740.902 H 2528.95 V 27.8398 H 2196.57 V 740.902 h -221.3 L 1857.58,1022.14 H 3688.2" /><path
         id="path30"
         style="fill:#000000;fill-opacity:1;fill-rule:nonzero;stroke:none"
         d="M 2810.21,37.8398 V 750.902 H 2518.95 V 37.8398 H 2166.57 V 750.902 H 1948.61 L 1822.55,1052.14 H 3678.2 V 750.902 h -521.3 v -72.336 h 485.79 V 418.5 H 3156.9 v -87.941 h 528.4 V 37.8398 h -875.09" /><path
         id="path32"
         style="fill:#ffffff;fill-opacity:1;fill-rule:nonzero;stroke:none"
         d="M 3688.2,1062.14 H 1807.53 l 11.6,-27.72 117.69,-281.24 5.14,-12.278 h 13.31 201.3 v -693.0622 -20 h 20 332.38 20 v 20 693.0622 h 271.26 v -693.0622 -20 h 20 855.09 20 v 20 272.7192 20 h -20 -508.4 V 408.5 h 465.79 20 v 20 240.066 20 h -20 -465.79 v 52.336 h 501.3 20 v 20 8.516 272.722 z m -20,-20 V 760.902 h -521.3 v -92.336 h 485.79 V 428.5 H 3146.9 V 320.559 h 528.4 V 47.8398 H 2820.21 V 760.902 H 2508.95 V 47.8398 H 2176.57 V 760.902 h -221.3 L 1837.58,1042.14 H 3668.2" /><path
         id="path34"
         style="fill:#000000;fill-opacity:1;fill-rule:nonzero;stroke:none"
         d="M 1635.46,406.699 1559,609.793 1482.54,406.699 Z M 2143.3,18.0703 c -124.91,27.5899 -253.23,46.3711 -381.41,55.8086 l -6.26,0.4609 -30.15,76.5702 h -334.31 l -29.49,-76.9998 -6.31,-0.4688 C 1229.52,63.8594 1103.36,45.2383 980.398,18.0703 L 961.598,13.9219 1561.88,1452 1735.85,1032.63 2162.12,13.9102 2143.3,18.0703" /><path
         id="path36"
         style="fill:#000000;fill-opacity:1;fill-rule:nonzero;stroke:none"
         d="m 1497,416.699 62,164.711 62.01,-164.711 z m 64.9,1061.321 -18.51,-44.35 L 959.785,35.5391 944.949,0 982.559,8.30859 C 1105.06,35.3789 1230.75,53.9297 1356.13,63.4609 l 12.62,0.961 4.54,11.8398 24.76,64.6483 h 320.62 l 25.35,-64.3787 4.6,-11.6993 12.54,-0.9218 C 1888.86,54.5 2016.7,35.7891 2141.14,8.30859 L 2178.78,0 2163.9,35.5586 1745.07,1036.51 1580.32,1433.63 Z M 1468.1,396.699 h 181.81 L 1559,638.176 1468.1,396.699 M 1561.85,1425.96 1726.62,1028.79 2145.45,27.8398 C 2020.85,55.3594 1893.04,74.25 1762.63,83.8516 l -30.34,77.0584 h -348 l -29.68,-77.4998 c -128.18,-9.75 -253.83,-28.5 -376.368,-55.5704 L 1561.85,1425.96" /><path
         id="path38"
         style="fill:#000000;fill-opacity:1;fill-rule:nonzero;stroke:none"
         d="M 1615.46,426.699 1539,629.793 1462.54,426.699 Z M 2123.3,38.0703 c -124.91,27.5899 -253.23,46.3711 -381.41,55.8086 l -6.26,0.4609 -30.15,76.5702 h -334.31 l -29.49,-76.9998 -6.31,-0.4688 C 1209.52,83.8594 1083.36,65.2383 960.398,38.0703 L 941.598,33.9219 1541.88,1472 1715.85,1052.63 2142.12,33.9102 2123.3,38.0703" /><path
         id="path40"
         style="fill:#ffffff;fill-opacity:1;fill-rule:nonzero;stroke:none"
         d="m 1477,436.699 62,164.711 62.01,-164.711 z m 64.9,1061.321 -18.51,-44.35 L 939.785,55.5391 924.949,20 l 37.61,8.3086 c 122.501,27.0703 248.191,45.6211 373.571,55.1523 l 12.62,0.961 4.54,11.8398 24.76,64.6483 h 320.62 l 25.35,-64.3787 4.6,-11.6993 12.54,-0.9218 C 1868.86,74.5 1996.7,55.7891 2121.14,28.3086 L 2158.78,20 2143.9,55.5586 1725.07,1056.51 1560.32,1453.63 Z M 1448.1,416.699 h 181.81 L 1539,658.176 1448.1,416.699 M 1541.85,1445.96 1706.62,1048.79 2125.45,47.8398 C 2000.85,75.3594 1873.04,94.25 1742.63,103.852 l -30.34,77.058 h -348 l -29.68,-77.5 C 1206.43,93.6602 1080.78,74.9102 958.242,47.8398 L 1541.85,1445.96" /><path
         id="path42"
         style="fill:#000000;fill-opacity:1;fill-rule:nonzero;stroke:none"
         d="m 1938.46,1236.63 c 9.3,0 14.01,2.85 14.01,8.48 0,3.24 0,8.97 -13.76,8.97 h -5.37 v -17.45 z m -81.28,-105.68 v 188.01 h 85.61 c 53.3,0 85.13,-26.08 85.13,-69.76 0,-45 -33.08,-72.65 -86.33,-72.65 h -8.25 v -45.6 h -76.16" /><path
         id="path44"
         style="fill:#000000;fill-opacity:1;fill-rule:nonzero;stroke:none"
         d="m 1942.79,1328.96 h -95.61 v -208.01 h 96.16 v 20 25.61 c 57.51,0.64 94.58,32.74 94.58,82.16 0,49.67 -36.46,80.24 -95.13,80.24 z m -19.45,-102.33 h 15.12 c 14.41,0 24.01,6.48 24.01,18.48 v 0.48 c 0,12.25 -8.88,18.49 -23.76,18.49 h -15.37 v -37.45 m 19.45,82.33 c 44.64,0 75.13,-19.92 75.13,-59.76 v -0.48 c 0,-40.57 -30.97,-62.17 -76.33,-62.17 h -18.25 v -45.6 h -56.16 v 168.01 h 75.61" /><path
         id="path46"
         style="fill:#000000;fill-opacity:1;fill-rule:nonzero;stroke:none"
         d="m 2135.5,1252.88 c -16.29,0 -24.8,-13.81 -24.8,-27.44 0,-14.36 8.68,-28.41 25.28,-28.41 16.29,0 24.81,13.8 24.81,27.44 0,14.35 -8.69,28.41 -25.29,28.41 z m 0,-125.54 c -56.88,0 -101.44,42.67 -101.44,97.13 0,55.21 44.76,98.08 101.92,98.08 56.9,0 101.46,-42.66 101.46,-97.11 0,-55.22 -44.78,-98.1 -101.94,-98.1" /><path
         id="path48"
         style="fill:#000000;fill-opacity:1;fill-rule:nonzero;stroke:none"
         d="m 2135.98,1207.03 c -10.5,0 -15.28,9.29 -15.28,17.92 0,6.52 3.09,17.93 14.8,17.93 10.5,0 15.29,-9.29 15.29,-17.93 0,-6.51 -3.1,-17.92 -14.81,-17.92 z m 0,125.52 c -62.76,0 -111.92,-47.26 -111.92,-107.6 0,-60.55 48.95,-107.61 111.44,-107.61 62.77,0 111.94,47.27 111.94,107.61 0,60.55 -48.96,107.6 -111.46,107.6 z m 0,-145.52 c 21.37,0 34.81,17.76 34.81,37.44 v 0.48 c 0,19.92 -13.69,37.93 -35.29,37.93 -21.35,0 -34.8,-17.77 -34.8,-37.44 v -0.49 c 0,-19.92 13.68,-37.92 35.28,-37.92 m 0,125.52 c 51.85,0 91.46,-38.39 91.46,-87.11 v -0.49 c 0,-48.72 -40.09,-87.61 -91.94,-87.61 -51.84,0 -91.44,38.41 -91.44,87.13 v 0.48 c 0,48.73 40.08,87.6 91.92,87.6" /><path
         id="path50"
         style="fill:#000000;fill-opacity:1;fill-rule:nonzero;stroke:none"
         d="m 2397.49,1129.74 -22.47,63.53 -22.45,-63.53 h -63.3 l -61.45,189.22 h 80.05 l 16.88,-57.31 19.32,57.79 h 62.88 l 19.32,-57.79 16.89,57.31 h 79.08 l -61.46,-189.22 h -63.29" /><path
         id="path52"
         style="fill:#000000;fill-opacity:1;fill-rule:nonzero;stroke:none"
         d="m 2414.16,1329.44 h -77.3 l -4.56,-13.66 -6.95,-20.78 -5.77,19.61 -4.23,14.35 h -14.96 -58.81 -27.52 l 8.49,-26.17 54.96,-169.22 4.5,-13.83 h 14.53 48.96 14.14 l 4.72,13.34 10.66,30.18 10.68,-30.18 4.72,-13.34 h 14.14 48.95 14.53 l 4.49,13.83 54.97,169.22 8.51,26.17 h -27.53 -57.84 -14.96 l -4.22,-14.34 -5.79,-19.63 -6.95,20.79 z m -14.41,-20 27.12,-81.13 23.77,80.65 h 57.84 l -54.97,-169.22 h -48.95 l -29.54,83.53 -29.52,-83.53 h -48.96 l -54.96,169.22 h 58.81 l 23.76,-80.65 27.11,81.13 h 48.49" /><path
         id="path54"
         style="fill:#000000;fill-opacity:1;fill-rule:nonzero;stroke:none"
         d="m 2526.07,1130.95 v 188.01 h 163.29 v -66.08 h -6 v -55.85 h 7.2 v -66.08 h -164.49" /><path
         id="path56"
         style="fill:#000000;fill-opacity:1;fill-rule:nonzero;stroke:none"
         d="m 2699.36,1328.96 h -183.29 v -208.01 h 184.49 v 20 46.08 20 h -7.2 v 35.85 h 6 v 20 46.08 z m -20,-20 v -46.08 h -88.09 v -17.04 h 82.09 v -40.57 h -82.09 v -18.24 h 89.29 v -46.08 h -144.49 v 168.01 h 143.29" /><path
         id="path58"
         style="fill:#000000;fill-opacity:1;fill-rule:nonzero;stroke:none"
         d="m 2794.08,1239.03 c 7.69,0 11.6,2.13 11.6,6.32 0,2.3 0,6.56 -11.37,6.56 h -14.48 v -12.88 z m 14.06,-108.08 -28.31,42.89 v -42.89 h -76.16 v 188.01 h 92.09 c 30.13,0 52.87,-7.44 67.56,-22.14 12.3,-12.3 18.29,-27.65 18.29,-46.91 0,-23.44 -10.12,-42.54 -28.76,-55.11 l 43.72,-63.85 h -88.43" /><path
         id="path60"
         style="fill:#000000;fill-opacity:1;fill-rule:nonzero;stroke:none"
         d="m 2795.76,1328.96 h -102.09 v -208.01 h 96.16 v 19.58 l 7,-10.6 5.93,-8.98 h 10.76 64.08 37.94 l -21.43,31.29 -27.64,40.37 c 16.36,14.18 25.14,33.75 25.14,56.82 0,22.53 -6.95,40.19 -21.22,54.46 -16.64,16.64 -41.74,25.07 -74.63,25.07 z m -25.93,-99.93 h 24.25 c 13.43,0 21.6,6.01 21.6,16.32 v 0.49 c 0,10.8 -8.4,16.07 -21.37,16.07 h -24.48 v -32.88 m 25.93,79.93 c 29.76,0 48.72,-7.44 60.49,-19.21 10.07,-10.07 15.36,-22.55 15.36,-39.84 v -0.48 c 0,-24.48 -12.73,-41.52 -33.13,-51.36 l 39.12,-57.12 h -64.08 l -31.69,48 h -12 v -48 h -56.16 v 168.01 h 82.09" /><path
         id="path62"
         style="fill:#000000;fill-opacity:1;fill-rule:nonzero;stroke:none"
         d="m 2893.27,1130.95 v 188.01 h 163.29 v -66.08 h -6 v -55.85 h 7.2 v -66.08 h -164.49" /><path
         id="path64"
         style="fill:#000000;fill-opacity:1;fill-rule:nonzero;stroke:none"
         d="m 3066.56,1328.96 h -183.29 v -208.01 h 184.49 v 20 46.08 20 h -7.2 v 35.85 h 6 v 20 46.08 z m -20,-20 v -46.08 h -88.09 v -17.04 h 82.09 v -40.57 h -82.09 v -18.24 h 89.29 v -46.08 h -144.49 v 168.01 h 143.29" /><path
         id="path66"
         style="fill:#000000;fill-opacity:1;fill-rule:nonzero;stroke:none"
         d="m 3147.03,1199.91 c 31.61,0.24 31.61,18.07 31.61,24.8 0,7.22 0,25.05 -31.61,25.29 z m -76.17,-68.96 v 188.01 h 74.33 c 68.94,0 110.09,-34.6 110.09,-92.57 0,-59.05 -42.92,-95.44 -112.01,-95.44 h -72.41" /><path
         id="path68"
         style="fill:#000000;fill-opacity:1;fill-rule:nonzero;stroke:none"
         d="m 3157.03,1210.81 v 28.3 c 11.61,-2.36 11.61,-8.89 11.61,-13.92 0,-5.41 0,-12.01 -11.61,-14.38 z m -11.84,118.15 h -84.33 v -208.01 h 82.41 c 75.26,0 122.01,40.22 122.01,104.97 0,63.74 -46.02,103.04 -120.09,103.04 z m -8.16,-139.05 h 9.36 c 25.69,0 42.25,10.55 42.25,34.8 v 0.48 c 0,24.24 -16.56,34.81 -42.25,34.81 h -9.36 v -70.09 m 8.16,119.05 c 66.73,0 100.09,-32.89 100.09,-82.57 v -0.47 c 0,-49.69 -34.08,-84.97 -102.01,-84.97 h -62.41 v 168.01 h 64.33" /><path
         id="path70"
         style="fill:#000000;fill-opacity:1;fill-rule:nonzero;stroke:none"
         d="m 3426.48,1252.96 c 6.23,0 7.93,1.35 7.94,1.36 l -0.2,1.01 c -0.01,-0.01 -0.01,-0.01 -0.02,-0.01 -0.21,0 -2.19,1.15 -7.96,1.15 H 3412 v -3.51 z m 3.6,-59.53 c 5.97,0 8.22,1.54 8.45,1.92 l -0.02,1.22 c -0.22,0.36 -2.41,1.82 -8.19,1.82 H 3412 v -4.96 z m -92.81,-62.48 v 188.01 h 104.09 c 25.09,0 42.52,-5.73 54.84,-18.05 8.67,-8.67 13.25,-20.16 13.25,-33.24 0,-15.71 -6.03,-28.6 -17.33,-37.81 15.18,-9.42 22.85,-23.44 22.85,-41.88 0,-34.83 -29.27,-57.03 -74.57,-57.03 h -103.13" /><path
         id="path72"
         style="fill:#000000;fill-opacity:1;fill-rule:nonzero;stroke:none"
         d="m 3441.36,1328.96 h -114.09 v -208.01 h 113.13 c 62.42,0 84.57,35.85 84.57,66.56 0,13.89 -3.71,30.35 -17.78,43.43 7.98,9.98 12.26,22.31 12.26,36.26 0,16.26 -5.6,30.19 -16.18,40.78 -14.32,14.31 -33.99,20.98 -61.91,20.98 z M 3402,1183.43 h 28.08 c 12.24,0 18.48,5.03 18.48,12.24 v 0.48 c 0,7.2 -6,12.24 -18.24,12.24 H 3402 v -24.96 m 0,59.53 h 24.48 c 12,0 17.76,4.08 17.76,11.51 v 0.49 c 0,7.44 -6,11.51 -18,11.51 H 3402 v -23.51 m 39.36,66 c 23.28,0 37.92,-5.28 47.77,-15.12 5.99,-6 10.32,-14.64 10.32,-26.17 v -0.47 c 0,-19.93 -12,-32.16 -30.01,-38.4 21.6,-6.25 35.53,-17.77 35.53,-40.82 v -0.47 c 0,-26.88 -22.08,-46.56 -64.57,-46.56 h -93.13 v 168.01 h 94.09" /><path
         id="path74"
         style="fill:#000000;fill-opacity:1;fill-rule:nonzero;stroke:none"
         d="m 3567.92,1130.95 v 66.81 l -70.79,121.2 h 86.37 l 22.78,-43.66 22.97,43.66 h 85.68 l -70.84,-120.49 v -67.52 h -76.17" /><path
         id="path76"
         style="fill:#000000;fill-opacity:1;fill-rule:nonzero;stroke:none"
         d="m 3732.41,1328.96 h -109.2 l -5.62,-10.69 -11.28,-21.42 -11.14,21.36 -5.61,10.75 h -12.12 -62.88 -34.85 l 17.57,-30.08 60.64,-103.83 v -54.1 -20 h 20 56.17 20 v 20 54.8 l 60.59,103.07 z m -34.96,-20 -63.36,-107.77 v -60.24 h -56.17 v 59.51 l -63.36,108.5 h 62.88 l 28.81,-55.2 29.04,55.2 h 62.16" /><path
         id="path78"
         style="fill:#000000;fill-opacity:1;fill-rule:nonzero;stroke:none"
         d="m 1918.46,1256.63 c 9.3,0 14.01,2.85 14.01,8.48 0,3.24 0,8.97 -13.76,8.97 h -5.37 v -17.45 z m -81.28,-105.68 v 188.01 h 85.61 c 53.3,0 85.13,-26.08 85.13,-69.76 0,-45 -33.08,-72.65 -86.33,-72.65 h -8.25 v -45.6 h -76.16" /><path
         id="path80"
         style="fill:#ffffff;fill-opacity:1;fill-rule:nonzero;stroke:none"
         d="m 1922.79,1348.96 h -95.61 v -208.01 h 96.16 v 20 25.61 c 57.51,0.64 94.58,32.74 94.58,82.16 0,49.67 -36.46,80.24 -95.13,80.24 z m -19.45,-102.33 h 15.12 c 14.41,0 24.01,6.48 24.01,18.48 v 0.48 c 0,12.25 -8.88,18.49 -23.76,18.49 h -15.37 v -37.45 m 19.45,82.33 c 44.64,0 75.13,-19.92 75.13,-59.76 v -0.48 c 0,-40.57 -30.97,-62.17 -76.33,-62.17 h -18.25 v -45.6 h -56.16 v 168.01 h 75.61" /><path
         id="path82"
         style="fill:#000000;fill-opacity:1;fill-rule:nonzero;stroke:none"
         d="m 2115.5,1272.88 c -16.29,0 -24.8,-13.81 -24.8,-27.44 0,-14.36 8.68,-28.41 25.28,-28.41 16.29,0 24.81,13.8 24.81,27.44 0,14.35 -8.69,28.41 -25.29,28.41 z m 0,-125.54 c -56.88,0 -101.44,42.67 -101.44,97.13 0,55.21 44.76,98.08 101.92,98.08 56.9,0 101.46,-42.66 101.46,-97.11 0,-55.22 -44.78,-98.1 -101.94,-98.1" /><path
         id="path84"
         style="fill:#ffffff;fill-opacity:1;fill-rule:nonzero;stroke:none"
         d="m 2115.98,1227.03 c -10.5,0 -15.28,9.29 -15.28,17.92 0,6.52 3.09,17.93 14.8,17.93 10.5,0 15.29,-9.29 15.29,-17.93 0,-6.51 -3.1,-17.92 -14.81,-17.92 z m 0,125.52 c -62.76,0 -111.92,-47.26 -111.92,-107.6 0,-60.55 48.95,-107.61 111.44,-107.61 62.77,0 111.94,47.27 111.94,107.61 0,60.55 -48.96,107.6 -111.46,107.6 z m 0,-145.52 c 21.37,0 34.81,17.76 34.81,37.44 v 0.48 c 0,19.92 -13.69,37.93 -35.29,37.93 -21.35,0 -34.8,-17.77 -34.8,-37.44 v -0.49 c 0,-19.92 13.68,-37.92 35.28,-37.92 m 0,125.52 c 51.85,0 91.46,-38.39 91.46,-87.11 v -0.49 c 0,-48.72 -40.09,-87.61 -91.94,-87.61 -51.84,0 -91.44,38.41 -91.44,87.13 v 0.48 c 0,48.73 40.08,87.6 91.92,87.6" /><path
         id="path86"
         style="fill:#000000;fill-opacity:1;fill-rule:nonzero;stroke:none"
         d="m 2377.49,1149.74 -22.47,63.53 -22.45,-63.53 h -63.3 l -61.45,189.22 h 80.05 l 16.88,-57.31 19.32,57.79 h 62.88 l 19.32,-57.79 16.89,57.31 h 79.08 l -61.46,-189.22 h -63.29" /><path
         id="path88"
         style="fill:#ffffff;fill-opacity:1;fill-rule:nonzero;stroke:none"
         d="m 2394.16,1349.44 h -77.3 l -4.56,-13.66 -6.95,-20.78 -5.77,19.61 -4.23,14.35 h -14.96 -58.81 -27.52 l 8.49,-26.17 54.96,-169.22 4.5,-13.83 h 14.53 48.96 14.14 l 4.72,13.34 10.66,30.18 10.68,-30.18 4.72,-13.34 h 14.14 48.95 14.53 l 4.49,13.83 54.97,169.22 8.51,26.17 h -27.53 -57.84 -14.96 l -4.22,-14.34 -5.79,-19.63 -6.95,20.79 z m -14.41,-20 27.12,-81.13 23.77,80.65 h 57.84 l -54.97,-169.22 h -48.95 l -29.54,83.53 -29.52,-83.53 h -48.96 l -54.96,169.22 h 58.81 l 23.76,-80.65 27.11,81.13 h 48.49" /><path
         id="path90"
         style="fill:#000000;fill-opacity:1;fill-rule:nonzero;stroke:none"
         d="m 2506.07,1150.95 v 188.01 h 163.29 v -66.08 h -6 v -55.85 h 7.2 v -66.08 h -164.49" /><path
         id="path92"
         style="fill:#ffffff;fill-opacity:1;fill-rule:nonzero;stroke:none"
         d="m 2679.36,1348.96 h -183.29 v -208.01 h 184.49 v 20 46.08 20 h -7.2 v 35.85 h 6 v 20 46.08 z m -20,-20 v -46.08 h -88.09 v -17.04 h 82.09 v -40.57 h -82.09 v -18.24 h 89.29 v -46.08 h -144.49 v 168.01 h 143.29" /><path
         id="path94"
         style="fill:#000000;fill-opacity:1;fill-rule:nonzero;stroke:none"
         d="m 2774.08,1259.03 c 7.69,0 11.6,2.13 11.6,6.32 0,2.3 0,6.56 -11.37,6.56 h -14.48 v -12.88 z m 14.06,-108.08 -28.31,42.89 v -42.89 h -76.16 v 188.01 h 92.09 c 30.13,0 52.87,-7.44 67.56,-22.14 12.3,-12.3 18.29,-27.65 18.29,-46.91 0,-23.44 -10.12,-42.54 -28.76,-55.11 l 43.72,-63.85 h -88.43" /><path
         id="path96"
         style="fill:#ffffff;fill-opacity:1;fill-rule:nonzero;stroke:none"
         d="m 2775.76,1348.96 h -102.09 v -208.01 h 96.16 v 19.58 l 7,-10.6 5.93,-8.98 h 10.76 64.08 37.94 l -21.43,31.29 -27.64,40.37 c 16.36,14.18 25.14,33.75 25.14,56.82 0,22.53 -6.95,40.19 -21.22,54.46 -16.64,16.64 -41.74,25.07 -74.63,25.07 z m -25.93,-99.93 h 24.25 c 13.43,0 21.6,6.01 21.6,16.32 v 0.49 c 0,10.8 -8.4,16.07 -21.37,16.07 h -24.48 v -32.88 m 25.93,79.93 c 29.76,0 48.72,-7.44 60.49,-19.21 10.07,-10.07 15.36,-22.55 15.36,-39.84 v -0.48 c 0,-24.48 -12.73,-41.52 -33.13,-51.36 l 39.12,-57.12 h -64.08 l -31.69,48 h -12 v -48 h -56.16 v 168.01 h 82.09" /><path
         id="path98"
         style="fill:#000000;fill-opacity:1;fill-rule:nonzero;stroke:none"
         d="m 2873.27,1150.95 v 188.01 h 163.29 v -66.08 h -6 v -55.85 h 7.2 v -66.08 h -164.49" /><path
         id="path100"
         style="fill:#ffffff;fill-opacity:1;fill-rule:nonzero;stroke:none"
         d="m 3046.56,1348.96 h -183.29 v -208.01 h 184.49 v 20 46.08 20 h -7.2 v 35.85 h 6 v 20 46.08 z m -20,-20 v -46.08 h -88.09 v -17.04 h 82.09 v -40.57 h -82.09 v -18.24 h 89.29 v -46.08 h -144.49 v 168.01 h 143.29" /><path
         id="path102"
         style="fill:#000000;fill-opacity:1;fill-rule:nonzero;stroke:none"
         d="m 3127.03,1219.91 c 31.61,0.24 31.61,18.07 31.61,24.8 0,7.22 0,25.05 -31.61,25.29 z m -76.17,-68.96 v 188.01 h 74.33 c 68.94,0 110.09,-34.6 110.09,-92.57 0,-59.05 -42.92,-95.44 -112.01,-95.44 h -72.41" /><path
         id="path104"
         style="fill:#ffffff;fill-opacity:1;fill-rule:nonzero;stroke:none"
         d="m 3137.03,1230.81 v 28.3 c 11.61,-2.36 11.61,-8.89 11.61,-13.92 0,-5.41 0,-12.01 -11.61,-14.38 z m -11.84,118.15 h -84.33 v -208.01 h 82.41 c 75.26,0 122.01,40.22 122.01,104.97 0,63.74 -46.02,103.04 -120.09,103.04 z m -8.16,-139.05 h 9.36 c 25.69,0 42.25,10.55 42.25,34.8 v 0.48 c 0,24.24 -16.56,34.81 -42.25,34.81 h -9.36 v -70.09 m 8.16,119.05 c 66.73,0 100.09,-32.89 100.09,-82.57 v -0.47 c 0,-49.69 -34.08,-84.97 -102.01,-84.97 h -62.41 v 168.01 h 64.33" /><path
         id="path106"
         style="fill:#000000;fill-opacity:1;fill-rule:nonzero;stroke:none"
         d="m 3406.48,1272.96 c 6.23,0 7.93,1.35 7.94,1.36 l -0.2,1.01 c -0.01,-0.01 -0.01,-0.01 -0.02,-0.01 -0.21,0 -2.19,1.15 -7.96,1.15 H 3392 v -3.51 z m 3.6,-59.53 c 5.97,0 8.22,1.54 8.45,1.92 l -0.02,1.22 c -0.22,0.36 -2.41,1.82 -8.19,1.82 H 3392 v -4.96 z m -92.81,-62.48 v 188.01 h 104.09 c 25.09,0 42.52,-5.73 54.84,-18.05 8.67,-8.67 13.25,-20.16 13.25,-33.24 0,-15.71 -6.03,-28.6 -17.33,-37.81 15.18,-9.42 22.85,-23.44 22.85,-41.88 0,-34.83 -29.27,-57.03 -74.57,-57.03 h -103.13" /><path
         id="path108"
         style="fill:#ffffff;fill-opacity:1;fill-rule:nonzero;stroke:none"
         d="m 3421.36,1348.96 h -114.09 v -208.01 h 113.13 c 62.42,0 84.57,35.85 84.57,66.56 0,13.89 -3.71,30.35 -17.78,43.43 7.98,9.98 12.26,22.31 12.26,36.26 0,16.26 -5.6,30.19 -16.18,40.78 -14.32,14.31 -33.99,20.98 -61.91,20.98 z M 3382,1203.43 h 28.08 c 12.24,0 18.48,5.03 18.48,12.24 v 0.48 c 0,7.2 -6,12.24 -18.24,12.24 H 3382 v -24.96 m 0,59.53 h 24.48 c 12,0 17.76,4.08 17.76,11.51 v 0.49 c 0,7.44 -6,11.51 -18,11.51 H 3382 v -23.51 m 39.36,66 c 23.28,0 37.92,-5.28 47.77,-15.12 5.99,-6 10.32,-14.64 10.32,-26.17 v -0.47 c 0,-19.93 -12,-32.16 -30.01,-38.4 21.6,-6.25 35.53,-17.77 35.53,-40.82 v -0.47 c 0,-26.88 -22.08,-46.56 -64.57,-46.56 h -93.13 v 168.01 h 94.09" /><path
         id="path110"
         style="fill:#000000;fill-opacity:1;fill-rule:nonzero;stroke:none"
         d="m 3547.92,1150.95 v 66.81 l -70.79,121.2 h 86.37 l 22.78,-43.66 22.97,43.66 h 85.68 l -70.84,-120.49 v -67.52 h -76.17" /><path
         id="path112"
         style="fill:#ffffff;fill-opacity:1;fill-rule:nonzero;stroke:none"
         d="m 3712.41,1348.96 h -109.2 l -5.62,-10.69 -11.28,-21.42 -11.14,21.36 -5.61,10.75 h -12.12 -62.88 -34.85 l 17.57,-30.08 60.64,-103.83 v -54.1 -20 h 20 56.17 20 v 20 54.8 l 60.59,103.07 z m -34.96,-20 -63.36,-107.77 v -60.24 h -56.17 v 59.51 l -63.36,108.5 h 62.88 l 28.81,-55.2 29.04,55.2 h 62.16" /></g></g></svg>